<svg xmlns="http://www.w3.org/2000/svg" width="210.092" height="86.655" viewBox="0 0 210.092 86.655">
  <g id="Group_6212" data-name="Group 6212" transform="translate(-1522 -94)">
    <g id="Group_5968" data-name="Group 5968" transform="translate(1598.556 94)">
      <path id="Path_1" data-name="Path 1" d="M370.856,279.943a5.665,5.665,0,0,1-4.838-2.7l-4.889-8.017a2.064,2.064,0,0,1,3.525-2.149l4.888,8.017a1.521,1.521,0,0,0,1.978.561l18.286-9.291a2.064,2.064,0,0,1,1.87,3.68l-18.287,9.291a5.579,5.579,0,0,1-2.534.605" transform="translate(-346.94 -231.468)" fill="#00c18b"/>
      <path id="Path_2" data-name="Path 2" d="M375.686,188.74a4.982,4.982,0,0,0-3.34-2.006l-4.887-.674a1.45,1.45,0,0,1-.913-.5L358.1,175.489a5.573,5.573,0,0,0-3.487-1.936l-5.95-.847a1.454,1.454,0,0,1-.652-.265l-7.653-5.59a5.551,5.551,0,0,0-1.956-.911l-5.534-1.364a5.6,5.6,0,0,0-5.68,1.918l-5.91,7.34a5.593,5.593,0,0,0-.418,6.4l9.4,15.416c.007.012.016.022.023.034.021.033.043.064.065.1s.038.051.057.076.042.051.063.075.048.055.074.081l.06.058c.029.027.058.054.088.08s.042.033.062.05.062.048.094.07.05.033.075.048.06.038.091.055.061.032.092.047.055.028.083.04.07.029.106.043l.079.029c.036.012.073.022.111.033s.056.015.084.021.07.014.1.02l.1.015.092.009c.04,0,.08.005.12.006l.039,0h6.005a2.064,2.064,0,0,0,2.016-1.624l1.345-6.16,3.37,11.334a2.063,2.063,0,0,0,1.919,1.474h.06a2.064,2.064,0,0,0,1.941-1.363l2.282-6.323.31,1.027a2.063,2.063,0,0,0,1.976,1.467h6.846a2.064,2.064,0,0,0,0-4.128h-5.313l-1.668-5.524a2.064,2.064,0,0,0-3.917-.1L346.923,193l-3.866-13a2.064,2.064,0,0,0-3.995.148l-2.7,12.367h-3.185l-8.8-14.427a1.455,1.455,0,0,1,.109-1.665l5.91-7.34a1.457,1.457,0,0,1,1.477-.5l5.534,1.364a1.445,1.445,0,0,1,.509.237l7.652,5.59a5.6,5.6,0,0,0,2.505,1.018l5.95.847a1.447,1.447,0,0,1,.907.5l8.451,10.067a5.569,5.569,0,0,0,3.511,1.94l4.887.674a.831.831,0,0,1,.7.973l-.514,2.8a.255.255,0,0,1-.135.18l-2.645,1.344a2.064,2.064,0,1,0,1.869,3.68l2.645-1.344a4.408,4.408,0,0,0,2.325-3.116l.514-2.8a4.982,4.982,0,0,0-.859-3.8" transform="translate(-320.044 -164.414)" fill="#006098"/>
    </g>
    <g id="Group_6197" data-name="Group 6197" transform="translate(1522 168.782)">
      <path id="Path_3" data-name="Path 3" d="M134.623,372.509h.749l.107,1.03a6.671,6.671,0,0,0,1.631.214c1.3,0,2.032-.521,2.032-1.671,0-1.1-.655-1.417-1.912-1.831-1.3-.428-2.567-.883-2.567-2.567,0-1.6,1.163-2.447,2.981-2.447a8.166,8.166,0,0,1,2.246.348l-.013,1.685h-.748l-.107-1.056a7.243,7.243,0,0,0-1.4-.161c-1.257,0-1.885.588-1.885,1.564,0,1.07.735,1.364,1.885,1.751,1.337.441,2.594.9,2.594,2.647,0,1.578-1.03,2.554-3.075,2.554a8.858,8.858,0,0,1-2.54-.4l.027-1.657" transform="translate(-134.596 -365.236)" fill="#4f5858"/>
      <path id="Path_4" data-name="Path 4" d="M155.182,378.5a3.232,3.232,0,0,1-1.858.642,1.728,1.728,0,0,1-1.912-1.832c0-1.431,1.056-1.872,2.433-1.872.415,0,.963.04,1.243.067v-.7c0-.869-.227-1.31-1.39-1.31a7.923,7.923,0,0,0-1.658.214l-.121-.735a8.984,8.984,0,0,1,1.9-.227c1.551,0,2.22.521,2.22,1.952v3.61l.669.12v.575h-1.444l-.08-.508m-.093-2.313c-.254-.027-.8-.054-1.123-.054-1.11,0-1.577.321-1.577,1.136a1.052,1.052,0,0,0,1.176,1.136,2.808,2.808,0,0,0,1.524-.508Z" transform="translate(-144.834 -369.814)" fill="#4f5858"/>
      <path id="Path_5" data-name="Path 5" d="M167.371,373.792l-.682-.12V373.1h1.645v4.1c0,.749.174,1.4,1.043,1.4a3.943,3.943,0,0,0,1.751-.575v-4.238l-.682-.12V373.1h1.645v5.428l.7.12v.575H171.3l-.094-.521a4.347,4.347,0,0,1-2.112.655c-1.323,0-1.725-.842-1.725-2.059v-3.5" transform="translate(-154.135 -370.022)" fill="#4f5858"/>
      <path id="Path_6" data-name="Path 6" d="M188.992,374.188a3.607,3.607,0,0,1-1.885.588c-1.8,0-2.1-1.631-2.1-3.088,0-1.778.441-3.3,2.286-3.3a3.312,3.312,0,0,1,1.618.414v-2.527l-.7-.12v-.575h1.658v8.369l.681.12v.575h-1.5l-.067-.454m-.08-4.733a3.937,3.937,0,0,0-1.444-.334c-1.109,0-1.484.775-1.484,2.487,0,1.337.227,2.393,1.377,2.393a3.192,3.192,0,0,0,1.551-.494Z" transform="translate(-165.288 -365.444)" fill="#4f5858"/>
      <path id="Path_7" data-name="Path 7" d="M201.278,374.067l.682-.12v-4.733l-.682-.12v-.575h1.644v5.428l.682.12v.575h-2.326v-.575m.682-8.489h.962v1.444h-.962Z" transform="translate(-175.193 -365.444)" fill="#4f5858"/>
      <path id="Path_8" data-name="Path 8" d="M223.563,374.274a10.822,10.822,0,0,1-2.366.294c-3.075,0-3.583-1.859-3.583-4.586,0-2.834.548-4.746,3.61-4.746a9.276,9.276,0,0,1,2.3.308l-.04,1.724h-.749l-.093-1.1a8.474,8.474,0,0,0-1.337-.12c-2.326,0-2.62,1.377-2.62,3.917,0,2.287.241,3.744,2.674,3.744a11.391,11.391,0,0,0,2.046-.241l.16.8" transform="translate(-185.138 -365.236)" fill="#4f5858"/>
      <path id="Path_9" data-name="Path 9" d="M235.9,375.991c0-2.059.481-3.235,2.54-3.235,2.126,0,2.54,1.243,2.54,3.155,0,2.059-.482,3.236-2.54,3.236-2.126,0-2.54-1.243-2.54-3.155m4.1-.067c0-1.47-.134-2.419-1.564-2.419s-1.564.922-1.564,2.473c0,1.471.134,2.42,1.564,2.42S240,377.475,240,375.924Z" transform="translate(-196.271 -369.814)" fill="#4f5858"/>
      <path id="Path_10" data-name="Path 10" d="M251.791,378.438l.682-.12v-4.733l-.682-.12v-.575h1.47l.067.414a4.041,4.041,0,0,1,1.871-.548,1.484,1.484,0,0,1,1.377.642,4.167,4.167,0,0,1,2.059-.642c1.323,0,1.657.869,1.657,1.911v3.65l.749.12v.575h-1.711v-4.1c0-.789-.147-1.39-1-1.39a3.618,3.618,0,0,0-1.537.441,3.973,3.973,0,0,1,.067.708v3.65l.735.12v.575h-1.7v-4.1c0-.789-.147-1.39-1-1.39a3.666,3.666,0,0,0-1.457.4v4.4l.682.12v.575h-2.326v-.575" transform="translate(-205.946 -369.814)" fill="#4f5858"/>
      <path id="Path_11" data-name="Path 11" d="M277.288,378.438l.682-.12v-4.733l-.682-.12v-.575h1.47l.067.414a4.042,4.042,0,0,1,1.871-.548,1.485,1.485,0,0,1,1.377.642,4.164,4.164,0,0,1,2.059-.642c1.323,0,1.657.869,1.657,1.911v3.65l.749.12v.575h-1.711v-4.1c0-.789-.147-1.39-1-1.39a3.62,3.62,0,0,0-1.538.441,3.964,3.964,0,0,1,.067.708v3.65l.735.12v.575h-1.7v-4.1c0-.789-.147-1.39-1-1.39a3.665,3.665,0,0,0-1.457.4v4.4l.682.12v.575h-2.326v-.575" transform="translate(-221.469 -369.814)" fill="#4f5858"/>
      <path id="Path_12" data-name="Path 12" d="M302.784,374.067l.682-.12v-4.733l-.682-.12v-.575h1.644v5.428l.682.12v.575h-2.326v-.575m.682-8.489h.962v1.444h-.962Z" transform="translate(-236.992 -365.444)" fill="#4f5858"/>
      <path id="Path_13" data-name="Path 13" d="M311.471,377.422h.7l.094.856a5.116,5.116,0,0,0,1.136.133c.936,0,1.458-.294,1.458-1s-.535-.869-1.364-1.11c-1.056-.307-2.045-.615-2.045-1.8s.976-1.738,2.326-1.738a6.473,6.473,0,0,1,1.791.267l-.04,1.431h-.708l-.067-.882a5.506,5.506,0,0,0-.922-.08c-.963,0-1.4.334-1.4.936,0,.642.508.816,1.4,1.07.976.28,1.992.588,1.992,1.845,0,1.163-.855,1.8-2.42,1.8a7.079,7.079,0,0,1-1.965-.294l.04-1.431" transform="translate(-242.256 -369.814)" fill="#4f5858"/>
      <path id="Path_14" data-name="Path 14" d="M325.723,377.422h.7l.094.856a5.113,5.113,0,0,0,1.136.133c.936,0,1.458-.294,1.458-1s-.535-.869-1.364-1.11c-1.056-.307-2.046-.615-2.046-1.8s.976-1.738,2.326-1.738a6.472,6.472,0,0,1,1.791.267l-.04,1.431h-.708l-.067-.882a5.506,5.506,0,0,0-.922-.08c-.963,0-1.4.334-1.4.936,0,.642.508.816,1.4,1.07.976.28,1.992.588,1.992,1.845,0,1.163-.855,1.8-2.42,1.8a7.078,7.078,0,0,1-1.965-.294l.04-1.431" transform="translate(-250.933 -369.814)" fill="#4f5858"/>
      <path id="Path_15" data-name="Path 15" d="M339.354,374.067l.682-.12v-4.733l-.682-.12v-.575H341v5.428l.682.12v.575h-2.326v-.575m.682-8.489H341v1.444h-.962Z" transform="translate(-259.256 -365.444)" fill="#4f5858"/>
      <path id="Path_16" data-name="Path 16" d="M348.069,375.991c0-2.059.482-3.235,2.54-3.235,2.126,0,2.54,1.243,2.54,3.155,0,2.059-.481,3.236-2.54,3.236-2.126,0-2.54-1.243-2.54-3.155m4.1-.067c0-1.47-.134-2.419-1.564-2.419s-1.564.922-1.564,2.473c0,1.471.134,2.42,1.564,2.42S352.173,377.475,352.173,375.924Z" transform="translate(-264.562 -369.814)" fill="#4f5858"/>
      <path id="Path_17" data-name="Path 17" d="M363.962,378.438l.682-.12v-4.733l-.682-.12v-.575h1.471l.093.548a4.563,4.563,0,0,1,2.179-.682c1.323,0,1.658.869,1.658,1.911v3.65l.749.12v.575H368.4v-4.1c0-.789-.147-1.39-1-1.39a4.251,4.251,0,0,0-1.792.561v4.238l.682.12v.575h-2.326v-.575" transform="translate(-274.238 -369.814)" fill="#4f5858"/>
      <path id="Path_18" data-name="Path 18" d="M388.9,373.859l.682-.12V369.06h-.909v-.575l.909-.174v-1.364c0-1.217.642-1.711,1.872-1.711a5.69,5.69,0,0,1,.936.08l-.08.735a5.221,5.221,0,0,0-.762-.067c-.829,0-1,.375-1,.963v1.364h1.417v.749h-1.417v4.679l.869.12v.575H388.9v-.575" transform="translate(-289.281 -365.236)" fill="#4f5858"/>
      <path id="Path_19" data-name="Path 19" d="M399.267,375.991c0-2.059.481-3.235,2.54-3.235,2.126,0,2.54,1.243,2.54,3.155,0,2.059-.481,3.236-2.54,3.236-2.126,0-2.54-1.243-2.54-3.155m4.1-.067c0-1.47-.134-2.419-1.564-2.419s-1.564.922-1.564,2.473c0,1.471.134,2.42,1.564,2.42S403.371,377.475,403.371,375.924Z" transform="translate(-295.732 -369.814)" fill="#4f5858"/>
      <path id="Path_20" data-name="Path 20" d="M415.159,378.5l.682-.12v-4.733l-.682-.12v-.575h1.471l.121.842a2.385,2.385,0,0,1,1.778-.936,2.2,2.2,0,0,1,.428.04l-.04.855a1.626,1.626,0,0,0-.428-.054,2.474,2.474,0,0,0-1.685.762v3.917l.869.12v.575h-2.513V378.5" transform="translate(-305.407 -369.876)" fill="#4f5858"/>
      <path id="Path_21" data-name="Path 21" d="M434.2,374.067l.775-.12v-7.674l-.775-.12v-.575H436.8v.575l-.775.12v3.276h4.211v-3.276l-.775-.12v-.575h2.607v.575l-.776.12v7.674l.776.12v.575h-2.607v-.575l.775-.12v-3.583h-4.211v3.583l.775.12v.575H434.2v-.575" transform="translate(-316.997 -365.444)" fill="#4f5858"/>
      <path id="Path_22" data-name="Path 22" d="M461.893,378.826a7.9,7.9,0,0,1-2.059.321c-1.832,0-2.5-1.123-2.5-3.075s.468-3.315,2.46-3.315c1.711,0,2.232.949,2.232,2.687v.816H458.3c.027,1.417.428,2.139,1.7,2.139a6.3,6.3,0,0,0,1.738-.294l.16.722m-.789-3.275c0-1.23-.134-2.045-1.337-2.045-1.029,0-1.4.575-1.47,2.045Z" transform="translate(-331.084 -369.814)" fill="#4f5858"/>
      <path id="Path_23" data-name="Path 23" d="M475.937,378.5a3.234,3.234,0,0,1-1.859.642,1.728,1.728,0,0,1-1.912-1.832c0-1.431,1.056-1.872,2.433-1.872.415,0,.963.04,1.243.067v-.7c0-.869-.227-1.31-1.39-1.31a7.919,7.919,0,0,0-1.657.214l-.12-.735a8.978,8.978,0,0,1,1.9-.227c1.55,0,2.219.521,2.219,1.952v3.61l.669.12v.575h-1.444l-.08-.508m-.094-2.313c-.254-.027-.8-.054-1.123-.054-1.11,0-1.578.321-1.578,1.136a1.052,1.052,0,0,0,1.176,1.136,2.805,2.805,0,0,0,1.524-.508Z" transform="translate(-340.115 -369.814)" fill="#4f5858"/>
      <path id="Path_24" data-name="Path 24" d="M487.65,374.067l.682-.12v-7.674l-.682-.12v-.575h1.645v8.369l.682.12v.575H487.65v-.575" transform="translate(-349.541 -365.444)" fill="#4f5858"/>
      <path id="Path_25" data-name="Path 25" d="M496.215,371.328h-.909v-.575l.962-.174.2-1.618h.709v1.618h1.578v.749h-1.578v3.77c0,.615.214.989.869.989a3.534,3.534,0,0,0,.642-.08l.107.708a4.16,4.16,0,0,1-.936.12c-1.11,0-1.645-.454-1.645-1.618v-3.891" transform="translate(-354.202 -367.504)" fill="#4f5858"/>
      <path id="Path_26" data-name="Path 26" d="M505.8,374.067l.682-.12v-7.674l-.682-.12v-.575h1.645v3.449a4.465,4.465,0,0,1,2.1-.642c1.324,0,1.658.869,1.658,1.911v3.65l.748.12v.575h-1.711v-4.1c0-.789-.147-1.39-1-1.39a4.253,4.253,0,0,0-1.791.561v4.238l.682.12v.575H505.8v-.575" transform="translate(-360.59 -365.444)" fill="#4f5858"/>
      <path id="Path_27" data-name="Path 27" d="M531.184,372.509h.749l.107,1.03a6.671,6.671,0,0,0,1.631.214c1.3,0,2.032-.521,2.032-1.671,0-1.1-.655-1.417-1.912-1.831-1.3-.428-2.567-.883-2.567-2.567,0-1.6,1.163-2.447,2.981-2.447a8.168,8.168,0,0,1,2.246.348l-.013,1.685h-.749l-.107-1.056a7.245,7.245,0,0,0-1.4-.161c-1.257,0-1.885.588-1.885,1.564,0,1.07.735,1.364,1.885,1.751,1.337.441,2.594.9,2.594,2.647,0,1.578-1.029,2.554-3.075,2.554a8.858,8.858,0,0,1-2.54-.4l.027-1.657" transform="translate(-376.029 -365.236)" fill="#4f5858"/>
      <path id="Path_28" data-name="Path 28" d="M547.7,381.112l.682-.12v-7.407l-.682-.12v-.575h1.471l.067.482a3.567,3.567,0,0,1,1.912-.615c1.765,0,2.086,1.564,2.086,3.1,0,1.765-.428,3.289-2.286,3.289a3.358,3.358,0,0,1-1.6-.4v2.247l.709.12v.575H547.7v-.575m1.645-3.035a3.828,3.828,0,0,0,1.444.334c1.123,0,1.471-.789,1.471-2.5,0-1.31-.2-2.38-1.377-2.38a3.157,3.157,0,0,0-1.538.481Z" transform="translate(-386.1 -369.814)" fill="#4f5858"/>
      <path id="Path_29" data-name="Path 29" d="M569.928,378.826a7.9,7.9,0,0,1-2.059.321c-1.831,0-2.5-1.123-2.5-3.075s.468-3.315,2.46-3.315c1.711,0,2.233.949,2.233,2.687v.816h-3.73c.027,1.417.427,2.139,1.7,2.139a6.3,6.3,0,0,0,1.738-.294l.161.722m-.789-3.275c0-1.23-.134-2.045-1.337-2.045-1.029,0-1.4.575-1.47,2.045Z" transform="translate(-396.858 -369.814)" fill="#4f5858"/>
      <path id="Path_30" data-name="Path 30" d="M585.141,378.852a7.629,7.629,0,0,1-1.979.294c-1.978,0-2.446-1.217-2.446-3.155,0-1.979.481-3.235,2.554-3.235a7.585,7.585,0,0,1,1.818.241l-.04,1.484H584.3l-.067-.883a5.289,5.289,0,0,0-.923-.093c-1.4,0-1.617.869-1.617,2.419,0,1.6.227,2.473,1.671,2.473a6.486,6.486,0,0,0,1.618-.254l.16.708" transform="translate(-406.2 -369.814)" fill="#4f5858"/>
      <path id="Path_31" data-name="Path 31" d="M594.591,374.067l.682-.12v-4.733l-.682-.12v-.575h1.644v5.428l.682.12v.575h-2.326v-.575m.682-8.489h.963v1.444h-.963Z" transform="translate(-414.648 -365.444)" fill="#4f5858"/>
      <path id="Path_32" data-name="Path 32" d="M606.564,378.5a3.233,3.233,0,0,1-1.858.642,1.728,1.728,0,0,1-1.912-1.832c0-1.431,1.056-1.872,2.433-1.872.415,0,.963.04,1.243.067v-.7c0-.869-.227-1.31-1.39-1.31a7.925,7.925,0,0,0-1.658.214l-.12-.735a8.984,8.984,0,0,1,1.9-.227c1.551,0,2.22.521,2.22,1.952v3.61l.669.12v.575h-1.444l-.08-.508m-.093-2.313c-.254-.027-.8-.054-1.123-.054-1.11,0-1.578.321-1.578,1.136a1.052,1.052,0,0,0,1.176,1.136,2.808,2.808,0,0,0,1.524-.508Z" transform="translate(-419.643 -369.814)" fill="#4f5858"/>
      <path id="Path_33" data-name="Path 33" d="M618.275,374.067l.682-.12v-7.674l-.682-.12v-.575h1.645v8.369l.682.12v.575h-2.327v-.575" transform="translate(-429.068 -365.444)" fill="#4f5858"/>
      <path id="Path_34" data-name="Path 34" d="M626.841,371.328h-.909v-.575l.963-.174.2-1.618h.709v1.618h1.578v.749H627.8v3.77c0,.615.214.989.869.989a3.527,3.527,0,0,0,.641-.08l.107.708a4.162,4.162,0,0,1-.936.12c-1.11,0-1.644-.454-1.644-1.618v-3.891" transform="translate(-433.729 -367.504)" fill="#4f5858"/>
      <path id="Path_35" data-name="Path 35" d="M636.493,374.067l.682-.12v-4.733l-.682-.12v-.575h1.645v5.428l.682.12v.575h-2.327v-.575m.682-8.489h.963v1.444h-.963Z" transform="translate(-440.159 -365.444)" fill="#4f5858"/>
      <path id="Path_36" data-name="Path 36" d="M649.733,378.826a7.893,7.893,0,0,1-2.059.321c-1.832,0-2.5-1.123-2.5-3.075s.468-3.315,2.46-3.315c1.711,0,2.233.949,2.233,2.687v.816h-3.73c.027,1.417.428,2.139,1.7,2.139a6.3,6.3,0,0,0,1.738-.294l.16.722m-.789-3.275c0-1.23-.134-2.045-1.337-2.045-1.03,0-1.4.575-1.47,2.045Z" transform="translate(-445.444 -369.814)" fill="#4f5858"/>
      <path id="Path_37" data-name="Path 37" d="M660.491,377.422h.695l.094.856a5.12,5.12,0,0,0,1.136.133c.936,0,1.458-.294,1.458-1s-.535-.869-1.364-1.11c-1.056-.307-2.046-.615-2.046-1.8s.976-1.738,2.326-1.738a6.477,6.477,0,0,1,1.791.267l-.04,1.431h-.709l-.067-.882a5.51,5.51,0,0,0-.922-.08c-.963,0-1.4.334-1.4.936,0,.642.508.816,1.4,1.07.976.28,1.992.588,1.992,1.845,0,1.163-.856,1.8-2.42,1.8a7.081,7.081,0,0,1-1.965-.294l.041-1.431" transform="translate(-454.745 -369.814)" fill="#4f5858"/>
    </g>
    <g id="Group_6196" data-name="Group 6196" transform="translate(1540.714 154.079)">
      <path id="Path_38" data-name="Path 38" d="M187.176,333.746v3.61h1.306v.933h-5.027q-1.5-.032-1.586-1.371-.013-.229-.013-.545t.01-.65q.01-.332.029-.646t.052-.541a2.082,2.082,0,0,1,.463-1.061,1.969,1.969,0,0,1,1-.6,3.188,3.188,0,0,1,1.475-.068,2.994,2.994,0,0,1,1.345.669v-.659h1.39v.933h-.444m-.94,1.077a.5.5,0,0,0-.17-.31,2.348,2.348,0,0,0-.431-.349,3.33,3.33,0,0,0-.581-.3,2.209,2.209,0,0,0-.62-.154,1.5,1.5,0,0,0-1.175.323,1.823,1.823,0,0,0-.431,1.224v1.227a2.376,2.376,0,0,0,.032.437.506.506,0,0,0,.124.264.487.487,0,0,0,.255.131,2.088,2.088,0,0,0,.431.036h2.565Zm-2.938-4.054h.966v.973H183.3Zm1.476,0h.966v.973h-.966Z" transform="translate(-181.856 -329.549)" fill="#4f5858"/>
      <path id="Path_39" data-name="Path 39" d="M202.832,342.364h-1.084a1.544,1.544,0,0,1-.966-.3,1.481,1.481,0,0,1-.96.3h-1.195v-.933h.9a1.975,1.975,0,0,0,.376-.029.454.454,0,0,0,.235-.115.463.463,0,0,0,.124-.228,1.789,1.789,0,0,0,.043-.372v-3.225h.96v3.225a1.822,1.822,0,0,0,.042.372.464.464,0,0,0,.124.228.455.455,0,0,0,.235.115,1.965,1.965,0,0,0,.375.029h.79v.933m-3.166.953h.966v.973h-.966Zm1.475,0h.966v.973h-.966Z" transform="translate(-192.067 -333.623)" fill="#4f5858"/>
      <path id="Path_40" data-name="Path 40" d="M209.215,340.543h5.112v-2.037a1.771,1.771,0,0,0-.156-.744,1.279,1.279,0,0,0-.411-.5,1.43,1.43,0,0,0-.617-.242,2.2,2.2,0,0,0-.773.029,5.616,5.616,0,0,0-.614.17q-.333.111-.64.235t-.558.238q-.251.114-.368.18l-.4-.933a6.9,6.9,0,0,1,1.214-.571,6.486,6.486,0,0,1,1.332-.33,3.338,3.338,0,0,1,1.185.039,2.426,2.426,0,0,1,.946.431,2.164,2.164,0,0,1,.633.78,2.559,2.559,0,0,1,.245,1.081v2.174h1.312v.933h-7.442l.007-.933" transform="translate(-198.508 -332.736)" fill="#4f5858"/>
      <path id="Path_41" data-name="Path 41" d="M228.066,340.537h.966v-2.6h-.444v-.946h1.4v.711a3.423,3.423,0,0,1,.484-.421,6.573,6.573,0,0,1,.574-.372q.3-.173.613-.313t.6-.248q.287-.107.536-.183a3.979,3.979,0,0,1,.424-.107,4.158,4.158,0,0,1,.859-.056,6.114,6.114,0,0,1,.871.095,2.057,2.057,0,0,1,1.215.757,2.3,2.3,0,0,1,.349.649,2.558,2.558,0,0,1,.14.767c0,.169.007.307.01.411s0,.194.006.271,0,.143,0,.2,0,.126,0,.2,0,.164-.006.268-.005.239-.01.4a2.009,2.009,0,0,1-.059.516h1.384v.933h-9.916v-.933m6.5-3.525a2.555,2.555,0,0,0-1.028,0,4.962,4.962,0,0,0-1.038.326,7.391,7.391,0,0,0-.963.509,9.589,9.589,0,0,0-.8.555,6.984,6.984,0,0,0-.542.46,1.034,1.034,0,0,0-.2.219v1.456h5.158a.517.517,0,0,0,.411-.156.633.633,0,0,0,.137-.432c0-.156.007-.282.009-.378s0-.175.007-.238,0-.119,0-.167,0-.1,0-.166,0-.142-.007-.238-.005-.222-.009-.379a1.548,1.548,0,0,0-.307-.924A1.422,1.422,0,0,0,234.562,337.012Z" transform="translate(-209.989 -332.729)" fill="#4f5858"/>
      <path id="Path_42" data-name="Path 42" d="M253.25,335.649h.542a1.973,1.973,0,0,0,.375-.029.455.455,0,0,0,.235-.115.464.464,0,0,0,.124-.228,1.832,1.832,0,0,0,.042-.372v-5.986h-.444v-.953h1.4v7.155a1.5,1.5,0,0,1-.385,1.081,1.48,1.48,0,0,1-1.057.382h-.836v-.933" transform="translate(-225.322 -327.841)" fill="#4f5858"/>
      <path id="Path_43" data-name="Path 43" d="M263.782,336.572h-.933v-7.684h-.438v-.94h1.371v8.624" transform="translate(-230.899 -327.831)" fill="#4f5858"/>
      <path id="Path_44" data-name="Path 44" d="M278.5,335.06a3.789,3.789,0,0,0-.5.878,3.938,3.938,0,0,0-.255,1.041,1.951,1.951,0,0,0,.343,1.492,1.767,1.767,0,0,0,1.4.552h6.2a1.962,1.962,0,0,0,.375-.029.457.457,0,0,0,.235-.115.463.463,0,0,0,.124-.228,1.793,1.793,0,0,0,.043-.372v-2.846h-.444v-.953h1.4v4.015a1.5,1.5,0,0,1-.385,1.08,1.482,1.482,0,0,1-1.058.382h-6.763a2.735,2.735,0,0,1-.9-.153,2.126,2.126,0,0,1-1.218-1.08,2.893,2.893,0,0,1-.268-.881,4.812,4.812,0,0,1-.046-.751,4.585,4.585,0,0,1,.382-1.737,4.429,4.429,0,0,1,.519-.868l.816.575m2.592-1.554h.966v.973h-.966Zm1.476,0h.966v.973h-.966Z" transform="translate(-239.646 -331.215)" fill="#4f5858"/>
      <path id="Path_45" data-name="Path 45" d="M310.078,336.572h-1.332a1.479,1.479,0,0,1-1.057-.382,1.5,1.5,0,0,1-.385-1.08v-7.162h1.4v.954h-.444v5.993a1.769,1.769,0,0,0,.042.372.464.464,0,0,0,.124.228.457.457,0,0,0,.235.115,1.966,1.966,0,0,0,.376.029h1.038v.933" transform="translate(-258.231 -327.831)" fill="#4f5858"/>
      <path id="Path_46" data-name="Path 46" d="M314.229,340.537h.966v-2.6h-.444v-.946h1.4v.711a3.421,3.421,0,0,1,.483-.421,6.577,6.577,0,0,1,.575-.372,6.873,6.873,0,0,1,.613-.313q.313-.14.6-.248t.535-.183a3.967,3.967,0,0,1,.424-.107,4.154,4.154,0,0,1,.859-.056,6.121,6.121,0,0,1,.871.095,2.06,2.06,0,0,1,1.215.757,2.309,2.309,0,0,1,.349.649,2.545,2.545,0,0,1,.14.767c0,.169.007.307.01.411s0,.194.007.271,0,.143,0,.2,0,.126,0,.2,0,.164-.007.268-.005.239-.01.4a2.006,2.006,0,0,1-.059.516h1.384v.933h-9.916v-.933m6.5-3.525a2.555,2.555,0,0,0-1.028,0,4.954,4.954,0,0,0-1.038.326,7.4,7.4,0,0,0-.963.509,9.605,9.605,0,0,0-.8.555,6.986,6.986,0,0,0-.542.46,1.023,1.023,0,0,0-.2.219v1.456h5.157a.517.517,0,0,0,.411-.156.633.633,0,0,0,.137-.432q.006-.235.01-.378c0-.1,0-.175.007-.238s0-.119,0-.167,0-.1,0-.166,0-.142-.007-.238-.005-.222-.01-.379a1.544,1.544,0,0,0-.307-.924A1.422,1.422,0,0,0,320.725,337.012Z" transform="translate(-262.447 -332.729)" fill="#4f5858"/>
      <path id="Path_47" data-name="Path 47" d="M339.412,340.537h.966v-2.6h-.444v-.946h1.4v.711a3.4,3.4,0,0,1,.483-.421,6.579,6.579,0,0,1,.574-.372q.3-.173.613-.313t.6-.248q.287-.107.535-.183a3.988,3.988,0,0,1,.424-.107,4.158,4.158,0,0,1,.859-.056,6.121,6.121,0,0,1,.871.095,2.057,2.057,0,0,1,1.215.757,2.289,2.289,0,0,1,.349.649,2.536,2.536,0,0,1,.14.767c0,.169.008.307.01.411s0,.194.006.271,0,.143,0,.2,0,.126,0,.2,0,.164-.006.268-.006.239-.01.4a2.013,2.013,0,0,1-.059.516h1.384v.933h-9.917v-.933m6.5-3.525a2.555,2.555,0,0,0-1.028,0,4.961,4.961,0,0,0-1.038.326,7.405,7.405,0,0,0-.963.509,9.726,9.726,0,0,0-.8.555,6.956,6.956,0,0,0-.541.46,1.033,1.033,0,0,0-.2.219v1.456H346.5a.517.517,0,0,0,.411-.156.634.634,0,0,0,.137-.432c0-.156.008-.282.01-.378s0-.175.007-.238,0-.119,0-.167,0-.1,0-.166,0-.142-.007-.238-.005-.222-.01-.379a1.546,1.546,0,0,0-.307-.924A1.423,1.423,0,0,0,345.908,337.012Z" transform="translate(-277.779 -332.729)" fill="#4f5858"/>
      <path id="Path_48" data-name="Path 48" d="M364.6,337.356h5.1v-2.037a1.77,1.77,0,0,0-.156-.745,1.276,1.276,0,0,0-.411-.5,1.428,1.428,0,0,0-.617-.242,2.2,2.2,0,0,0-.774.029,5.577,5.577,0,0,0-.613.17q-.333.111-.64.235t-.558.238q-.251.114-.368.18l-.405-.933a6.872,6.872,0,0,1,1.215-.571,6.482,6.482,0,0,1,1.332-.33,3.339,3.339,0,0,1,1.185.04,2.426,2.426,0,0,1,.947.431,2.164,2.164,0,0,1,.633.78,2.548,2.548,0,0,1,.245,1.081v2.174h1.312v.933H364.6l.007-.933m1.952-6.587h.966v.973h-.966Z" transform="translate(-293.111 -329.549)" fill="#4f5858"/>
      <path id="Path_49" data-name="Path 49" d="M387.641,338.289h-1.083a1.542,1.542,0,0,1-.966-.3,1.481,1.481,0,0,1-.96.3h-1.194v-.933h.9a1.972,1.972,0,0,0,.375-.029.457.457,0,0,0,.235-.115.464.464,0,0,0,.124-.228,1.823,1.823,0,0,0,.043-.372v-3.225h.96v3.225a1.8,1.8,0,0,0,.042.372.467.467,0,0,0,.124.228.457.457,0,0,0,.235.115,1.973,1.973,0,0,0,.375.029h.79v.933m-3.219-7.52h.966v.973h-.966Zm1.476,0h.966v.973H385.9Z" transform="translate(-304.582 -329.549)" fill="#4f5858"/>
      <path id="Path_50" data-name="Path 50" d="M397.732,336.582h-.9a1.542,1.542,0,0,1-.966-.3,1.48,1.48,0,0,1-.96.3h-.888v-.933h.594a1.977,1.977,0,0,0,.376-.029.455.455,0,0,0,.235-.115.464.464,0,0,0,.124-.228,1.788,1.788,0,0,0,.043-.372v-6.94h.96v6.94a1.775,1.775,0,0,0,.043.372.426.426,0,0,0,.359.343,1.979,1.979,0,0,0,.375.029h.607v.933" transform="translate(-311.023 -327.841)" fill="#4f5858"/>
      <path id="Path_51" data-name="Path 51" d="M403.346,335.649h.541a1.975,1.975,0,0,0,.376-.029.455.455,0,0,0,.235-.115.463.463,0,0,0,.124-.228,1.779,1.779,0,0,0,.043-.372v-5.986h-.444v-.953h1.4v7.155a1.5,1.5,0,0,1-.385,1.081,1.481,1.481,0,0,1-1.057.382h-.835v-.933" transform="translate(-316.703 -327.841)" fill="#4f5858"/>
      <path id="Path_52" data-name="Path 52" d="M425.355,333.746v3.61h1.305v.933h-5.027q-1.5-.032-1.586-1.371-.014-.229-.013-.545c0-.211,0-.428.01-.65s.017-.437.03-.646.03-.39.052-.541a2.086,2.086,0,0,1,.464-1.061,1.967,1.967,0,0,1,1-.6,3.188,3.188,0,0,1,1.475-.068,3,3,0,0,1,1.345.669v-.659h1.39v.933h-.444m-.94,1.077a.5.5,0,0,0-.169-.31,2.367,2.367,0,0,0-.431-.349,3.312,3.312,0,0,0-.581-.3,2.208,2.208,0,0,0-.62-.154,1.5,1.5,0,0,0-1.175.323,1.822,1.822,0,0,0-.431,1.224v1.227a2.343,2.343,0,0,0,.033.437.507.507,0,0,0,.124.264.486.486,0,0,0,.254.131,2.088,2.088,0,0,0,.431.036h2.565Zm-2.937-4.054h.966v.973h-.966Zm1.475,0h.966v.973h-.966Z" transform="translate(-326.863 -329.549)" fill="#4f5858"/>
      <path id="Path_53" data-name="Path 53" d="M436.806,340.537h1.809a1.977,1.977,0,0,0,.375-.029.456.456,0,0,0,.235-.115.465.465,0,0,0,.124-.228,1.8,1.8,0,0,0,.042-.372v-2.846h-.444v-.953h1.4v4.015a1.5,1.5,0,0,1-.385,1.081,1.482,1.482,0,0,1-1.058.382h-2.1v-.933m.738,1.887h.966v.972h-.966Zm1.475,0h.966v.972h-.966Z" transform="translate(-337.074 -332.729)" fill="#4f5858"/>
      <path id="Path_54" data-name="Path 54" d="M449.487,337.253v-1.26h3.78a1.755,1.755,0,0,1,1.276.4,1.723,1.723,0,0,1,.4,1.266v3.813h-5.739v-.933h4.779v-2.709a2.477,2.477,0,0,0-.042-.437.519.519,0,0,0-.131-.264.5.5,0,0,0-.258-.128,2.3,2.3,0,0,0-.431-.032H450.46v.287h-.973" transform="translate(-344.623 -332.729)" fill="#4f5858"/>
      <path id="Path_55" data-name="Path 55" d="M471.61,341.367h-2.781q-1.495-.032-1.586-1.371-.013-.229-.013-.545t.01-.65q.01-.332.03-.646t.052-.541a2.081,2.081,0,0,1,.463-1.061,1.967,1.967,0,0,1,1-.6,3.191,3.191,0,0,1,1.475-.069,3,3,0,0,1,1.345.669v-.659h1.391v.933h-.444v3.61h1.305v.933H472.55v.836a2.568,2.568,0,0,1-.235,1.064,2.17,2.17,0,0,1-.611.774,2.388,2.388,0,0,1-.924.444,3.374,3.374,0,0,1-1.169.068,5.473,5.473,0,0,1-.552-.088,4.939,4.939,0,0,1-.532-.147l.1-.979a2.072,2.072,0,0,0,.277.075q.192.042.408.082c.143.026.281.049.411.068a2.2,2.2,0,0,0,.294.029,1.4,1.4,0,0,0,1.587-1.489v-.738m0-3.466a.5.5,0,0,0-.17-.31,2.371,2.371,0,0,0-.431-.349,3.323,3.323,0,0,0-.581-.3,2.206,2.206,0,0,0-.62-.154,1.5,1.5,0,0,0-1.175.323,1.821,1.821,0,0,0-.431,1.224v1.227a2.382,2.382,0,0,0,.033.437.508.508,0,0,0,.124.264.486.486,0,0,0,.254.131,2.084,2.084,0,0,0,.431.036h2.566Z" transform="translate(-355.596 -332.626)" fill="#4f5858"/>
      <path id="Path_56" data-name="Path 56" d="M490.7,340.537v.933H484v-.933h1.952a8.591,8.591,0,0,1-1.384-2.344,3.191,3.191,0,0,1-.049-.558,1.923,1.923,0,0,1,.053-.44,1.2,1.2,0,0,1,.147-.353,1.65,1.65,0,0,1,.235-.294,2.58,2.58,0,0,1,1.867-.555h.855a2.58,2.58,0,0,1,1.867.555,2.007,2.007,0,0,1,.248.3,1.327,1.327,0,0,1,.17.369,1.461,1.461,0,0,1,.052.444,2.111,2.111,0,0,1-.091.529,5.614,5.614,0,0,1-.4.839,16.423,16.423,0,0,1-.979,1.505H490.7m-1.743-2.579a.631.631,0,0,0-.147-.552,1.229,1.229,0,0,0-.571-.33c-.057-.017-.117-.034-.18-.048a1.675,1.675,0,0,0-.235-.036q-.141-.013-.349-.023t-.522-.009a2.414,2.414,0,0,0-.7.1,1.375,1.375,0,0,0-.591.346.452.452,0,0,0-.134.245.85.85,0,0,0,.01.3,3.752,3.752,0,0,0,.444.8q.411.64,1.234,1.776h.046A14.545,14.545,0,0,0,488.957,337.958Z" transform="translate(-365.807 -332.729)" fill="#4f5858"/>
      <path id="Path_57" data-name="Path 57" d="M510.795,341.47h-.822a1.506,1.506,0,0,1-.986-.32,1.293,1.293,0,0,1-.529.245,3.328,3.328,0,0,1-.751.075h-6.75v-.933h.986v-2.6H501.5v-.946h1.4v3.551h2.318v-4.015h.992v4.015h1.841a.387.387,0,0,0,.261-.095.545.545,0,0,0,.137-.225,1.114,1.114,0,0,0,.053-.313c0-.117.007-.235.007-.352v-3.558h.979v3.8a1.762,1.762,0,0,0,.043.372.426.426,0,0,0,.359.343,1.978,1.978,0,0,0,.376.029h.528v.933" transform="translate(-376.13 -332.729)" fill="#4f5858"/>
      <path id="Path_58" data-name="Path 58" d="M525.94,335.649h.542a1.979,1.979,0,0,0,.375-.029.453.453,0,0,0,.235-.115.465.465,0,0,0,.125-.228,1.8,1.8,0,0,0,.042-.372v-5.986h-.444v-.953h1.4v7.155a1.5,1.5,0,0,1-.385,1.081,1.482,1.482,0,0,1-1.058.382h-.836v-.933" transform="translate(-391.34 -327.841)" fill="#4f5858"/>
      <path id="Path_59" data-name="Path 59" d="M536.473,336.572h-.934v-7.684H535.1v-.94h1.371v8.624" transform="translate(-396.918 -327.831)" fill="#4f5858"/>
      <path id="Path_60" data-name="Path 60" d="M554.791,333.746v3.61H556.1v.933h-5.027q-1.5-.032-1.586-1.371-.014-.229-.013-.545t.01-.65q.01-.332.03-.646t.053-.541a2.082,2.082,0,0,1,.463-1.061,1.968,1.968,0,0,1,1-.6,3.19,3.19,0,0,1,1.475-.068,3,3,0,0,1,1.345.669v-.659h1.391v.933h-.444m-.94,1.077a.5.5,0,0,0-.17-.31,2.36,2.36,0,0,0-.431-.349,3.315,3.315,0,0,0-.581-.3,2.211,2.211,0,0,0-.62-.154,1.5,1.5,0,0,0-1.175.323,1.821,1.821,0,0,0-.431,1.224v1.227a2.379,2.379,0,0,0,.033.437.5.5,0,0,0,.124.264.485.485,0,0,0,.254.131,2.086,2.086,0,0,0,.431.036h2.566Zm-2.938-4.054h.966v.973h-.966Zm1.475,0h.966v.973h-.966Z" transform="translate(-405.665 -329.549)" fill="#4f5858"/>
      <path id="Path_61" data-name="Path 61" d="M569.958,336.39h-.9a1.543,1.543,0,0,1-.966-.3,1.48,1.48,0,0,1-.959.3h-.888v-.933h.594a1.979,1.979,0,0,0,.375-.029.453.453,0,0,0,.235-.115.464.464,0,0,0,.124-.228,1.8,1.8,0,0,0,.042-.372v-3.225h.96v3.225a1.728,1.728,0,0,0,.042.372.466.466,0,0,0,.124.228.456.456,0,0,0,.235.115,1.982,1.982,0,0,0,.375.029h.608v.933m-2.226-7.533a.609.609,0,0,0,.179.418.644.644,0,0,0,.4.17h.829v.4h-2.056v-.4h.385a1.01,1.01,0,0,1-.17-.594v-.183a1.071,1.071,0,0,1,.081-.424.914.914,0,0,1,.226-.32,1,1,0,0,1,.343-.2,1.271,1.271,0,0,1,.434-.072,1.824,1.824,0,0,1,.343.032,3.426,3.426,0,0,1,.349.084v.581h-.431v-.222a.822.822,0,0,0-.15-.036.913.913,0,0,0-.124-.01.636.636,0,0,0-.46.167.664.664,0,0,0-.179.486Z" transform="translate(-415.877 -327.649)" fill="#4f5858"/>
      <path id="Path_62" data-name="Path 62" d="M579.775,342.364h-1.083a1.543,1.543,0,0,1-.966-.3,1.481,1.481,0,0,1-.96.3h-1.195v-.933h.9a1.976,1.976,0,0,0,.376-.029.456.456,0,0,0,.235-.115.466.466,0,0,0,.124-.228,1.8,1.8,0,0,0,.043-.372v-3.225h.96v3.225a1.823,1.823,0,0,0,.042.372.466.466,0,0,0,.124.228.455.455,0,0,0,.235.115,1.961,1.961,0,0,0,.375.029h.79v.933m-3.166.953h.966v.973h-.966Zm1.475,0h.966v.973h-.966Z" transform="translate(-421.556 -333.623)" fill="#4f5858"/>
      <path id="Path_63" data-name="Path 63" d="M591.943,333.6a3.331,3.331,0,0,1,1.185.039,2.42,2.42,0,0,1,.947.431,2.155,2.155,0,0,1,.633.78,2.547,2.547,0,0,1,.245,1.081v3.127h1.273v.933H586.152v-.933h.8a1.38,1.38,0,0,1-.078-.437q-.019-.457,0-.924a8.424,8.424,0,0,1,.081-.917,2.081,2.081,0,0,1,.464-1.061,1.962,1.962,0,0,1,1-.6,3.3,3.3,0,0,1,1.2-.111l-.215-.5a6.95,6.95,0,0,1,1.214-.571,6.467,6.467,0,0,1,1.332-.329m-.705,3.466a.5.5,0,0,0-.169-.31,2.368,2.368,0,0,0-.431-.349,3.314,3.314,0,0,0-.581-.3,2.184,2.184,0,0,0-.62-.153,1.5,1.5,0,0,0-1.175.323,1.821,1.821,0,0,0-.43,1.224c0,.1-.007.213-.007.339s0,.242.007.346a2.551,2.551,0,0,0,.029.434.511.511,0,0,0,.114.261.447.447,0,0,0,.242.131,2.123,2.123,0,0,0,.4.043h2.618Zm.94,1.991h1.763v-2.99a1.781,1.781,0,0,0-.156-.744,1.285,1.285,0,0,0-.412-.5,1.427,1.427,0,0,0-.617-.241,2.178,2.178,0,0,0-.773.029q-.19.039-.4.1t-.428.141q-.215.075-.424.16t-.392.163a3.332,3.332,0,0,1,.894.536q.169.13.339.274a2.358,2.358,0,0,1,.3.307,1.613,1.613,0,0,1,.219.346.92.92,0,0,1,.085.392Z" transform="translate(-427.998 -331.253)" fill="#4f5858"/>
      <path id="Path_64" data-name="Path 64" d="M611.735,335.649h.542a1.975,1.975,0,0,0,.375-.029.456.456,0,0,0,.235-.115.464.464,0,0,0,.124-.228,1.807,1.807,0,0,0,.042-.372v-5.986h-.444v-.953h1.4v7.155a1.5,1.5,0,0,1-.385,1.081,1.481,1.481,0,0,1-1.057.382h-.836v-.933" transform="translate(-443.573 -327.841)" fill="#4f5858"/>
      <path id="Path_65" data-name="Path 65" d="M622.269,336.572h-.933v-7.684H620.9v-.94h1.371v8.624" transform="translate(-449.152 -327.831)" fill="#4f5858"/>
    </g>
  </g>
</svg>
